<svg xmlns="http://www.w3.org/2000/svg" viewBox="0 0 512 512">
  <rect width="512" height="512" rx="112" fill="#0f172a"/>
  <path d="M96 322h320v34a36 36 0 0 1-36 36H132a36 36 0 0 1-36-36z" fill="#f8fafc"/>
  <path d="M124 156h264a28 28 0 0 1 28 28v106H96V184a28 28 0 0 1 28-28z" fill="#f59e0b"/>
  <path d="M145 206h222v46H145z" fill="#0f172a"/>
  <circle cx="164" cy="388" r="42" fill="#f59e0b"/>
  <circle cx="348" cy="388" r="42" fill="#f59e0b"/>
  <circle cx="164" cy="388" r="18" fill="#0f172a"/>
  <circle cx="348" cy="388" r="18" fill="#0f172a"/>
  <text x="256" y="128" text-anchor="middle" font-family="Arial, sans-serif" font-size="72" font-weight="700" fill="#f8fafc">SND</text>
</svg>
